<?xml version="1.0" encoding="utf-8"?>
<!-- Generator: Adobe Illustrator 17.0.2, SVG Export Plug-In . SVG Version: 6.00 Build 0)  -->
<!DOCTYPE svg PUBLIC "-//W3C//DTD SVG 1.1//EN" "http://www.w3.org/Graphics/SVG/1.1/DTD/svg11.dtd">
<svg version="1.1" id="Layer_1" xmlns="http://www.w3.org/2000/svg" xmlns:xlink="http://www.w3.org/1999/xlink" x="0px" y="0px"
	 width="385px" height="385px" viewBox="0 0 385 385" enable-background="new 0 0 385 385" xml:space="preserve">
<rect x="45.5" y="145.5" fill="#FFFFFF" width="298" height="116"/>
<path d="M161.301,196.886c-0.865-0.723-1.873-1.296-3.023-1.717c-1.15-0.42-2.344-0.678-3.576-0.772
	c-1.237-0.092-2.292-0.062-3.173,0.093c-2.581,0.455-4.966,1.556-7.15,3.301c-2.186,1.745-4.025,3.854-5.514,6.327
	c-1.491,2.472-2.55,5.138-3.181,7.996c-0.628,2.859-0.705,5.636-0.23,8.328c0.193,1.099,0.462,2.227,0.809,3.383
	c0.345,1.158,0.853,2.188,1.522,3.088c0.667,0.904,1.514,1.604,2.537,2.104c1.024,0.498,2.304,0.614,3.844,0.343
	c1.208-0.213,2.529-1.001,3.961-2.355c1.432-1.359,2.865-3.027,4.303-5.008c1.434-1.981,2.801-4.12,4.094-6.418
	c1.294-2.295,2.432-4.521,3.411-6.677c0.98-2.156,1.747-4.076,2.3-5.76c0.554-1.684,0.766-2.883,0.64-3.598
	C162.691,198.499,162.165,197.615,161.301,196.886z M296.576,175.33c-0.344-1.156-0.865-2.184-1.561-3.082
	c-0.697-0.896-1.596-1.573-2.695-2.032c-1.1-0.455-2.504-0.536-4.207-0.234c-2.582,0.455-4.955,1.54-7.117,3.251
	c-2.162,1.713-3.979,3.791-5.445,6.229c-1.469,2.442-2.518,5.093-3.145,7.951c-0.631,2.859-0.697,5.689-0.203,8.491
	c0.186,1.044,0.467,2.17,0.85,3.376c0.383,1.209,0.93,2.302,1.641,3.28c0.711,0.98,1.625,1.741,2.74,2.278
	c1.115,0.542,2.496,0.666,4.145,0.374c2.527-0.444,4.867-1.552,7.021-3.319c2.152-1.767,3.973-3.899,5.459-6.4
	c1.482-2.499,2.535-5.221,3.148-8.163c0.615-2.94,0.676-5.814,0.182-8.616C297.193,177.614,296.924,176.488,296.576,175.33z
	 M191.499,9C90.707,9,9,90.707,9,191.5C9,292.291,90.707,374,191.499,374C292.291,374,374,292.291,374,191.5
	C374,90.707,292.291,9,191.499,9z M74.718,239.309c0.136,0.771,0.419,1.342,0.855,1.718c0.435,0.378,1.063,0.492,1.888,0.349
	c1.154-0.205,2.55-0.804,4.187-1.802c1.638-0.995,3.374-2.237,5.209-3.723c1.833-1.484,3.749-3.152,5.744-5.006
	c1.997-1.854,3.941-3.755,5.835-5.705c1.894-1.947,3.694-3.882,5.396-5.796c1.702-1.914,3.206-3.666,4.512-5.258
	c0.772-0.758,1.544-1.207,2.314-1.341c0.934-0.166,1.774,0.112,2.525,0.829c0.75,0.717,1.236,1.709,1.459,2.972
	c0.223,1.264,0.15,2.609-0.223,4.033c-0.372,1.426-1.244,2.91-2.615,4.456c-2.999,3.872-6.069,7.586-9.21,11.143
	c-3.141,3.557-6.315,6.767-9.521,9.624c-3.206,2.861-6.453,5.26-9.736,7.2c-3.283,1.938-6.573,3.198-9.87,3.78
	c-2.2,0.387-4.09,0.424-5.675,0.107c-1.585-0.315-2.921-0.899-4.008-1.756c-1.085-0.857-1.939-1.925-2.562-3.204
	c-0.622-1.278-1.067-2.686-1.339-4.225c-0.484-2.747-0.522-5.688-0.11-8.82c0.41-3.132,0.984-5.98,1.723-8.547
	c1.047-3.696,2.083-7.365,3.115-11.003c1.028-3.637,2.042-7.131,3.038-10.479l-3.544,0.624c-3.078,0.544-5.28,0.422-6.609-0.364
	c-1.327-0.785-2.101-1.81-2.326-3.074c-0.096-0.549-0.037-1.252,0.181-2.114c0.215-0.857,0.604-1.692,1.172-2.501
	c0.565-0.808,1.3-1.546,2.202-2.216c0.902-0.668,1.985-1.114,3.25-1.337l8.901-1.57l11.302-37.602
	c0.73-2.282,1.828-4.02,3.287-5.213c1.461-1.191,3.072-1.943,4.831-2.254c1.648-0.292,3.238-0.117,4.766,0.521
	c1.528,0.636,2.473,1.971,2.831,4.003c0.183,1.046,0.134,2.143-0.142,3.299c-0.28,1.152-0.675,2.513-1.193,4.076
	c-0.329,1.022-0.739,2.241-1.225,3.657c-0.486,1.418-1.001,2.926-1.54,4.521c-0.539,1.597-1.097,3.267-1.666,5.01
	c-0.571,1.745-1.138,3.431-1.699,5.06c-1.248,3.848-2.574,7.904-3.972,12.174l26.869-4.738c1.319-0.231,2.538-0.374,3.663-0.433
	c1.122-0.056,2.119,0.051,2.989,0.32c0.869,0.274,1.586,0.73,2.152,1.365c0.565,0.638,0.955,1.56,1.168,2.769
	c0.107,0.605,0.116,1.228,0.031,1.863c-0.087,0.64-0.346,1.251-0.78,1.839c-0.437,0.585-1.077,1.123-1.926,1.613
	s-1.979,0.916-3.387,1.278l-34.245,6.292c-1.335,4.314-2.578,8.515-3.728,12.598c-1.15,4.086-2.241,7.861-3.273,11.327
	c-0.426,1.436-0.804,3.076-1.128,4.917C74.531,236.41,74.485,237.989,74.718,239.309z M338.209,175.001
	c-1.068,1.662-2.289,3.576-3.662,5.745c-1.379,2.17-2.879,4.247-4.514,6.234c-1.633,1.987-3.391,3.741-5.273,5.264
	c-1.887,1.523-3.871,2.468-5.959,2.836c-1.432,0.252-2.853,0.277-4.277,0.075c-1.424-0.203-2.912-0.678-4.459-1.424
	c-1.436,3.427-3.195,6.627-5.277,9.599c-2.082,2.976-4.516,5.642-7.301,8.001c-2.785,2.361-5.889,4.368-9.307,6.018
	c-3.42,1.649-7.162,2.835-11.228,3.552c-1.539,0.272-3.377,0.284-5.518,0.038c-2.141-0.246-4.254-0.908-6.342-1.983
	c-2.09-1.077-3.963-2.629-5.625-4.661c-1.434-1.753-2.436-3.986-3.059-6.645c-1.789,1.877-3.787,3.869-6.018,5.992
	c-2.742,2.609-5.734,5.077-8.979,7.407c-3.242,2.327-6.662,4.392-10.256,6.184c-3.592,1.796-7.229,3.019-10.91,3.667
	c-2.803,0.494-5.367,0.492-7.691-0.004c-2.328-0.495-4.365-1.367-6.113-2.617c-1.75-1.251-3.189-2.824-4.318-4.723
	c-0.484-0.817-0.889-1.672-1.238-2.557c-0.719,0.867-1.438,1.733-2.195,2.609c-2.045,2.373-4.178,4.577-6.396,6.611
	c-2.222,2.034-4.448,3.773-6.687,5.215c-2.239,1.443-4.429,2.354-6.571,2.732c-1.924,0.339-3.646,0.219-5.164-0.364
	c-1.52-0.581-2.85-1.451-3.988-2.611c-1.14-1.158-2.078-2.537-2.812-4.136c-0.735-1.597-1.256-3.277-1.568-5.035
	c-0.203-1.154-0.323-2.309-0.356-3.465c-0.033-1.153,0.055-2.263,0.266-3.318c-1.298,2.607-2.816,5.327-4.553,8.153
	c-1.741,2.83-3.685,5.467-5.831,7.913c-2.146,2.447-4.464,4.555-6.957,6.325c-2.493,1.77-5.14,2.904-7.942,3.398
	c-1.428,0.253-3.141,0.257-5.14,0.013c-1.997-0.242-3.964-0.873-5.898-1.891c-1.936-1.018-3.665-2.47-5.189-4.354
	c-1.52-1.885-2.548-4.338-3.082-7.361c-0.396-2.253-0.53-5.006-0.394-8.257c0.134-3.254,0.604-6.694,1.41-10.321
	c0.806-3.626,2.001-7.279,3.592-10.959c1.589-3.679,3.637-7.086,6.144-10.219c2.507-3.134,5.514-5.846,9.018-8.136
	c3.507-2.288,7.596-3.846,12.265-4.669c2.418-0.426,4.588-0.497,6.506-0.213c1.922,0.286,3.576,0.673,4.967,1.164
	c1.581,0.628,3.017,1.366,4.299,2.217c0.847-0.659,1.727-1.295,2.637-1.91c0.758-0.529,1.562-1.026,2.416-1.488
	c0.854-0.461,1.609-0.75,2.27-0.867c2.087-0.368,3.893-0.092,5.415,0.829c1.522,0.921,2.405,2.07,2.647,3.442
	c0.068,0.387,0.092,0.693,0.076,0.922c-0.09,1.093-0.283,2.487-0.578,4.181c-0.299,1.698-0.631,3.585-1.001,5.658
	c-0.37,2.077-0.741,4.24-1.108,6.485c-0.369,2.246-0.676,4.44-0.922,6.579c-0.246,2.141-0.404,4.138-0.475,5.99
	c-0.069,1.855,0.008,3.413,0.23,4.676c0.289,1.648,0.805,2.962,1.543,3.935c0.739,0.975,1.768,1.347,3.086,1.114
	c0.826-0.145,1.754-0.577,2.789-1.3c1.032-0.721,2.133-1.637,3.297-2.749c1.164-1.11,2.346-2.354,3.549-3.728
	c1.203-1.373,2.363-2.753,3.477-4.14c0.822-1.044,1.662-2.145,2.508-3.271c0.607-2.774,1.473-5.636,2.625-8.596
	c1.441-3.71,3.25-7.428,5.426-11.156c2.176-3.726,4.648-7.137,7.418-10.233c2.768-3.092,5.76-5.717,8.98-7.871
	c3.215-2.153,6.611-3.545,10.184-4.175c1.209-0.212,2.373-0.277,3.494-0.193c1.117,0.089,2.127,0.347,3.027,0.786
	c0.896,0.436,1.666,1.107,2.311,2.015c0.639,0.906,1.084,2.048,1.326,3.421c0.299,1.704,0.438,3.618,0.416,5.748
	c-0.021,2.127-0.311,4.175-0.869,6.142c-0.562,1.97-1.42,3.681-2.58,5.131c-1.162,1.453-2.76,2.357-4.791,2.715
	c-1.1,0.193-1.83,0.152-2.191-0.124c-0.359-0.277-0.611-0.827-0.758-1.651c-0.086-0.495-0.203-1.224-0.342-2.19
	c-0.145-0.967-0.291-1.889-0.447-2.769c-0.174-0.988-0.459-1.802-0.855-2.442c-0.395-0.636-1.143-0.86-2.24-0.667
	c-1.264,0.225-2.594,0.955-3.992,2.191c-1.396,1.238-2.744,2.765-4.035,4.579c-1.297,1.813-2.514,3.828-3.652,6.042
	c-1.141,2.211-2.125,4.425-2.953,6.638c-0.826,2.216-1.422,4.317-1.775,6.306c-0.359,1.989-0.422,3.642-0.189,4.961
	c0.338,1.924,1.277,3.316,2.82,4.179c1.539,0.861,3.463,1.087,5.771,0.682c2.473-0.438,5.037-1.313,7.695-2.633
	c2.656-1.317,5.26-2.854,7.812-4.606c2.551-1.753,4.986-3.6,7.311-5.537c2.32-1.94,4.42-3.768,6.299-5.489
	c1.826-1.674,3.357-3.104,4.602-4.299c0.262-1.664,0.609-3.367,1.043-5.11c0.881-3.525,2.15-7.094,3.809-10.699
	c1.658-3.607,3.799-6.96,6.43-10.057c2.625-3.098,5.779-5.78,9.459-8.043c3.68-2.263,7.938-3.821,12.773-4.673
	c2.088-0.368,4.377-0.488,6.863-0.36s4.863,0.671,7.129,1.632c2.266,0.959,4.264,2.407,5.992,4.338
	c1.728,1.936,2.875,4.494,3.438,7.681c0.291,1.648,0.4,3.572,0.336,5.762c-0.068,2.193-0.338,4.523-0.809,6.985
	c0.664,0.562,1.377,0.917,2.145,1.067c0.758,0.149,1.553,0.149,2.381,0.004c1.152-0.203,2.369-0.759,3.656-1.664
	c1.287-0.906,2.578-2.013,3.875-3.319c1.303-1.306,2.574-2.749,3.83-4.331c1.248-1.579,2.42-3.145,3.504-4.697
	c1.088-1.552,2.062-3.011,2.926-4.381c0.859-1.369,1.574-2.531,2.148-3.482c0.312-0.451,0.748-0.727,1.297-0.823
	c0.768-0.136,1.527,0.142,2.273,0.831c0.744,0.691,1.244,1.751,1.494,3.179c0.252,1.43,0.115,3.153-0.408,5.171
	C341.393,170.332,340.158,172.561,338.209,175.001z"/>
</svg>
